<?xml version="1.0" encoding="UTF-8" standalone="no"?>
<!-- Created with Inkscape (http://www.inkscape.org/) -->

<svg
   xmlns:dc="http://purl.org/dc/elements/1.1/"
   xmlns:cc="http://creativecommons.org/ns#"
   xmlns:rdf="http://www.w3.org/1999/02/22-rdf-syntax-ns#"
   xmlns:svg="http://www.w3.org/2000/svg"
   xmlns="http://www.w3.org/2000/svg"
   xmlns:sodipodi="http://sodipodi.sourceforge.net/DTD/sodipodi-0.dtd"
   xmlns:inkscape="http://www.inkscape.org/namespaces/inkscape"
   width="320"
   height="320"
   viewBox="0 0 320 320.00001"
   id="svg2"
   version="1.1"
   inkscape:version="0.91 r13725"
   sodipodi:docname="favicon.svg"
   inkscape:export-filename="/home/njau/Projects/mtaala/cv/static/images/favicon.png"
   inkscape:export-xdpi="8.2523794"
   inkscape:export-ydpi="8.2523794">
  <defs
     id="defs4" />
  <sodipodi:namedview
     id="base"
     pagecolor="#ffffff"
     bordercolor="#666666"
     borderopacity="1.0"
     inkscape:pageopacity="0.0"
     inkscape:pageshadow="2"
     inkscape:zoom="1.4"
     inkscape:cx="16.734954"
     inkscape:cy="172.47771"
     inkscape:document-units="px"
     inkscape:current-layer="layer1"
     showgrid="false"
     units="px"
     inkscape:window-width="1535"
     inkscape:window-height="876"
     inkscape:window-x="65"
     inkscape:window-y="24"
     inkscape:window-maximized="1"
     showguides="false" />
  <metadata
     id="metadata7">
    <rdf:RDF>
      <cc:Work
         rdf:about="">
        <dc:format>image/svg+xml</dc:format>
        <dc:type
           rdf:resource="http://purl.org/dc/dcmitype/StillImage" />
        <dc:title />
      </cc:Work>
    </rdf:RDF>
  </metadata>
  <g
     inkscape:label="Layer 1"
     inkscape:groupmode="layer"
     id="layer1"
     transform="translate(0,-732.36216)">
    <rect
       style="fill:#ffffff;fill-rule:evenodd;stroke:#000000;stroke-width:1px;stroke-linecap:butt;stroke-linejoin:miter;stroke-opacity:1;fill-opacity:0"
       id="rect3372"
       width="319.28571"
       height="319.28571"
       x="0"
       y="732.36218" />
    <g
       id="g4360"
       transform="matrix(2.4640507,0,0,2.1488389,-181.17829,-928.96858)">
      <path
         sodipodi:nodetypes="cssscsc"
         inkscape:connector-curvature="0"
         id="path4145"
         d="m 172.67184,800.32912 c 7.57615,9.30387 -6.63,2.09047 -13.18841,3.53652 -6.5584,1.44604 -11.02489,8.52107 -20.84,8.52107 -9.8151,0 -12.00875,-8.08519 -18.31462,-9.53123 -6.30586,-1.44605 -18.74425,4.75721 -14.19856,-5.05174 6.566,-8.00114 12.3779,-15.59313 32.00811,-15.59313 19.63021,0 27.96749,8.09706 34.53348,18.11851 z"
         style="fill:#000000;fill-opacity:1;stroke:#000000;stroke-width:1.12848485;stroke-miterlimit:4;stroke-dasharray:none;stroke-opacity:1" />
      <ellipse
         ry="5.5558391"
         rx="9.5964489"
         cy="832.08801"
         cx="123.23861"
         id="path4148"
         style="fill:none;fill-opacity:1;stroke:#000000;stroke-width:1;stroke-miterlimit:4;stroke-dasharray:none;stroke-opacity:1" />
      <path
         inkscape:connector-curvature="0"
         id="path4150"
         d="m 109.60155,825.522 c 6.95256,-4.37032 19.88671,-8.50301 24.74874,-2.02031"
         style="fill:none;fill-rule:evenodd;stroke:#000000;stroke-width:4.0999999;stroke-linecap:butt;stroke-linejoin:miter;stroke-miterlimit:4;stroke-dasharray:none;stroke-opacity:1" />
      <ellipse
         transform="scale(-1,1)"
         ry="5.5558391"
         rx="9.5964489"
         cy="832.07764"
         cx="-156.59563"
         id="path4148-9"
         style="fill:none;fill-opacity:1;stroke:#000000;stroke-width:1;stroke-miterlimit:4;stroke-dasharray:none;stroke-opacity:1" />
      <path
         inkscape:connector-curvature="0"
         id="path4150-2"
         d="m 170.23268,825.5116 c -6.95256,-4.37032 -19.88671,-8.50301 -24.74874,-2.02031"
         style="fill:none;fill-rule:evenodd;stroke:#000000;stroke-width:4.0999999;stroke-linecap:butt;stroke-linejoin:miter;stroke-miterlimit:4;stroke-dasharray:none;stroke-opacity:1" />
      <path
         sodipodi:nodetypes="cccc"
         inkscape:connector-curvature="0"
         id="path4183"
         d="m 137.38075,841.70474 c -0.82052,1.77671 0.87499,4.81601 0,6.566 -5.4285,13.50124 12.65108,14.01617 5.74683,0.0449 -1.60061,-2.18665 -1.80232,-4.32874 -2.26995,-6.66687"
         style="fill:none;fill-rule:evenodd;stroke:#000000;stroke-width:1px;stroke-linecap:butt;stroke-linejoin:miter;stroke-opacity:1" />
      <path
         sodipodi:nodetypes="sssss"
         inkscape:connector-curvature="0"
         id="path4185"
         d="m 159.6041,869.56519 c -2e-5,3.0684 -9.15085,3.01014 -19.19289,3.01014 -10.04205,0 -17.17258,0.0583 -17.1726,-3.01014 0,-3.06841 8.14069,-0.0203 18.18275,-0.0203 10.04205,0 18.18274,-3.04809 18.18274,0.0203 z"
         style="fill:none;fill-opacity:1;stroke:#000000;stroke-width:1;stroke-miterlimit:4;stroke-dasharray:none;stroke-opacity:1" />
      <g
         transform="matrix(0.89131049,0,0,0.68350289,-40.958461,254.47516)"
         id="g4313">
        <path
           style="fill:none;fill-rule:evenodd;stroke:#000000;stroke-width:1px;stroke-linecap:butt;stroke-linejoin:miter;stroke-opacity:1"
           d="m 223.20402,885.57254 c 0.0684,3.02993 0.52637,7.16082 2.27284,9.34391"
           id="path4188-3"
           inkscape:connector-curvature="0" />
        <path
           style="fill:none;fill-rule:evenodd;stroke:#000000;stroke-width:1px;stroke-linecap:butt;stroke-linejoin:miter;stroke-opacity:1"
           d="m 221.06641,885.72047 c 0.0684,3.02993 0.52637,7.16082 2.27284,9.34391"
           id="path4188-9"
           inkscape:connector-curvature="0" />
        <path
           style="fill:none;fill-rule:evenodd;stroke:#000000;stroke-width:1px;stroke-linecap:butt;stroke-linejoin:miter;stroke-opacity:1"
           d="m 218.83382,885.88853 c 0.0684,3.02993 0.52637,7.16082 2.27284,9.34391"
           id="path4188-25"
           inkscape:connector-curvature="0" />
        <path
           style="fill:none;fill-rule:evenodd;stroke:#000000;stroke-width:1px;stroke-linecap:butt;stroke-linejoin:miter;stroke-opacity:1"
           d="m 215.14773,885.96993 c 0.0684,3.02993 0.52637,7.16082 2.27284,9.34391"
           id="path4188-6"
           inkscape:connector-curvature="0" />
        <path
           style="fill:none;fill-rule:evenodd;stroke:#000000;stroke-width:1px;stroke-linecap:butt;stroke-linejoin:miter;stroke-opacity:1"
           d="m 217.00478,885.94455 c 0.0684,3.02993 0.52637,7.16082 2.27284,9.34391"
           id="path4188-90"
           inkscape:connector-curvature="0" />
        <path
           style="fill:none;fill-rule:evenodd;stroke:#000000;stroke-width:1px;stroke-linecap:butt;stroke-linejoin:miter;stroke-opacity:1"
           d="m 213.52876,886.04127 c 0.0684,3.02993 0.52637,7.16082 2.27284,9.34391"
           id="path4188-19"
           inkscape:connector-curvature="0" />
        <path
           style="fill:none;fill-rule:evenodd;stroke:#000000;stroke-width:1px;stroke-linecap:butt;stroke-linejoin:miter;stroke-opacity:1"
           d="m 211.81483,886.23734 c 0.0684,3.02993 0.52637,7.16082 2.27284,9.34391"
           id="path4188-7"
           inkscape:connector-curvature="0" />
        <path
           style="fill:none;fill-rule:evenodd;stroke:#000000;stroke-width:1px;stroke-linecap:butt;stroke-linejoin:miter;stroke-opacity:1"
           d="m 209.97669,886.4236 c 0.0684,3.02993 0.52637,7.16082 2.27284,9.34391"
           id="path4188-91"
           inkscape:connector-curvature="0" />
        <path
           style="fill:none;fill-rule:evenodd;stroke:#000000;stroke-width:1px;stroke-linecap:butt;stroke-linejoin:miter;stroke-opacity:1"
           d="m 208.28026,886.28967 c 0.0684,3.02993 0.52637,7.16082 2.27284,9.34391"
           id="path4188-96"
           inkscape:connector-curvature="0" />
        <path
           style="fill:none;fill-rule:evenodd;stroke:#000000;stroke-width:1px;stroke-linecap:butt;stroke-linejoin:miter;stroke-opacity:1"
           d="m 206.27133,886.37896 c 0.0684,3.02993 0.52637,7.16082 2.27284,9.34391"
           id="path4188-92"
           inkscape:connector-curvature="0" />
      </g>
      <g
         transform="matrix(0.89131049,0,0,0.68350289,-41.117624,254.96338)"
         id="g4345">
        <path
           style="fill:none;fill-rule:evenodd;stroke:#000000;stroke-width:1px;stroke-linecap:butt;stroke-linejoin:miter;stroke-opacity:1"
           d="m 186.50486,883.93852 c -0.0684,3.02993 -0.52637,7.16082 -2.27284,9.34391"
           id="path4188"
           inkscape:connector-curvature="0" />
        <path
           style="fill:none;fill-rule:evenodd;stroke:#000000;stroke-width:1px;stroke-linecap:butt;stroke-linejoin:miter;stroke-opacity:1"
           d="m 188.34064,884.12475 c -0.0684,3.02993 -0.52637,7.16082 -2.27284,9.34391"
           id="path4188-5"
           inkscape:connector-curvature="0" />
        <path
           style="fill:none;fill-rule:evenodd;stroke:#000000;stroke-width:1px;stroke-linecap:butt;stroke-linejoin:miter;stroke-opacity:1"
           d="m 197.66706,885.08105 c -0.0684,3.02993 -0.52637,7.16082 -2.27284,9.34391"
           id="path4188-1"
           inkscape:connector-curvature="0" />
        <path
           style="fill:none;fill-rule:evenodd;stroke:#000000;stroke-width:1px;stroke-linecap:butt;stroke-linejoin:miter;stroke-opacity:1"
           d="m 195.79206,884.92569 c -0.0684,3.02993 -0.52637,7.16082 -2.27284,9.34391"
           id="path4188-2"
           inkscape:connector-curvature="0" />
        <path
           style="fill:none;fill-rule:evenodd;stroke:#000000;stroke-width:1px;stroke-linecap:butt;stroke-linejoin:miter;stroke-opacity:1"
           d="m 193.79713,884.67315 c -0.0684,3.02993 -0.52637,7.16082 -2.27284,9.34391"
           id="path4188-11"
           inkscape:connector-curvature="0" />
        <path
           style="fill:none;fill-rule:evenodd;stroke:#000000;stroke-width:1px;stroke-linecap:butt;stroke-linejoin:miter;stroke-opacity:1"
           d="m 191.8508,884.68584 c -0.0684,3.02993 -0.52637,7.16082 -2.27284,9.34391"
           id="path4188-8"
           inkscape:connector-curvature="0" />
        <path
           style="fill:none;fill-rule:evenodd;stroke:#000000;stroke-width:1px;stroke-linecap:butt;stroke-linejoin:miter;stroke-opacity:1"
           d="m 190.21564,884.4101 c -0.0684,3.02993 -0.52637,7.16082 -2.27284,9.34391"
           id="path4188-4"
           inkscape:connector-curvature="0" />
        <path
           style="fill:none;fill-rule:evenodd;stroke:#000000;stroke-width:1px;stroke-linecap:butt;stroke-linejoin:miter;stroke-opacity:1"
           d="m 199.37881,885.39179 c -0.0684,3.02993 -0.52637,7.16082 -2.27284,9.34391"
           id="path4188-0"
           inkscape:connector-curvature="0" />
        <path
           style="fill:none;fill-rule:evenodd;stroke:#000000;stroke-width:1px;stroke-linecap:butt;stroke-linejoin:miter;stroke-opacity:1"
           d="m 201.25118,885.47845 c -0.0684,3.02993 -0.52637,7.16082 -2.27284,9.34391"
           id="path4188-48"
           inkscape:connector-curvature="0" />
        <path
           style="fill:none;fill-rule:evenodd;stroke:#000000;stroke-width:1px;stroke-linecap:butt;stroke-linejoin:miter;stroke-opacity:1"
           d="m 203.13527,885.53074 c -0.0684,3.02993 -0.52637,7.16082 -2.27284,9.34391"
           id="path4188-28"
           inkscape:connector-curvature="0" />
      </g>
      <path
         sodipodi:nodetypes="ccscc"
         inkscape:connector-curvature="0"
         id="path4357"
         d="m 141.60714,908.43356 c -8.8073,-6.53226 -16.66523,-11.11821 -18.34772,-16.12634 -9.53964,-6.07955 2.81044,-10.43842 18.70486,-10.65938 15.89442,-0.22096 27.07685,0.4848 19.00697,6.91969 -1.64132,4.64919 -9.67781,11.4561 -19.36411,19.86603 z"
         style="fill:#000000;fill-opacity:1;stroke:#000000;stroke-width:1;stroke-miterlimit:4;stroke-dasharray:none;stroke-opacity:1" />
    </g>
  </g>
</svg>
